<svg xmlns="http://www.w3.org/2000/svg" width="23.355" height="13.129" viewBox="0 0 23.355 13.129">
  <g id="delivery-truck" transform="translate(-0.927 -11.305)">
    <path id="Path_8369" data-name="Path 8369" d="M39.175,33.22a2.078,2.078,0,1,1,2.076-2.077A2.078,2.078,0,0,1,39.175,33.22Zm0-3.4a1.32,1.32,0,1,0,1.318,1.32A1.32,1.32,0,0,0,39.175,29.822Z" transform="translate(-18.277 -8.786)"/>
    <path id="Path_8370" data-name="Path 8370" d="M17.506,33.22a2.078,2.078,0,1,1,2.076-2.078,2.078,2.078,0,0,1-2.076,2.078Zm0-3.4a1.32,1.32,0,1,0,1.318,1.32,1.32,1.32,0,0,0-1.318-1.32Z" transform="translate(-7.557 -8.786)"/>
    <path id="Path_8371" data-name="Path 8371" d="M40.658,26.012H39.621a.379.379,0,1,1,0-.758h.929v-2.01a1.6,1.6,0,0,0-.2-.776L38.3,18.791a.2.2,0,0,0-.176-.1h-2.8v6.569h.9a.379.379,0,1,1,0,.758H34.946a.379.379,0,0,1-.379-.379V18.308a.379.379,0,0,1,.379-.379h3.175a.96.96,0,0,1,.839.492L41.01,22.1a2.356,2.356,0,0,1,.3,1.145v2.117A.651.651,0,0,1,40.658,26.012Z" transform="translate(-17.026 -3.277)"/>
    <path id="Path_8372" data-name="Path 8372" d="M12.255,30.33H8.621a.379.379,0,0,1-.379-.379V27.037a.379.379,0,1,1,.758,0v2.536h3.255a.379.379,0,0,1,0,.758Z" transform="translate(-4.003 -7.595)"/>
    <path id="Path_8373" data-name="Path 8373" d="M8.621,23.193c-.209,0-.379-.256-.379-.572V18.783c0-.316.17-.572.379-.572s.379.256.379.572v3.841c0,.315-.17.569-.379.569Z" transform="translate(-4.003 -5.096)"/>
    <path id="Path_8374" data-name="Path 8374" d="M21.923,22.735H15.649a.379.379,0,1,1,0-.758h5.9V12.063H9v1.561a.379.379,0,1,1-.758,0V11.993a.689.689,0,0,1,.689-.688H21.613a.689.689,0,0,1,.688.688V22.356A.379.379,0,0,1,21.923,22.735Z" transform="translate(-4.003 0)"/>
    <path id="Path_8375" data-name="Path 8375" d="M6.877,27.416H2.067a.379.379,0,1,1,0-.758h4.81a.379.379,0,1,1,0,.758Z" transform="translate(-0.761 -7.595)"/>
    <path id="Path_8376" data-name="Path 8376" d="M12.6,24H5.888a.379.379,0,1,1,0-.758H12.6a.379.379,0,0,1,0,.758Z" transform="translate(-2.651 -5.908)"/>
  </g>
</svg>
